<mxfile host="app.diagrams.net" modified="2023-05-12T11:53:32.508Z" agent="Mozilla/5.0 (Windows NT 10.0; Win64; x64) AppleWebKit/537.36 (KHTML, like Gecko) Chrome/112.0.0.0 Safari/537.36" etag="nHBkaxf5tX0gEZttGXjr" version="21.1.5" type="github">
  <diagram name="第 1 页" id="tJ2cZZhzwSiRv1uxZi0t">
    <mxGraphModel dx="1461" dy="743" grid="1" gridSize="10" guides="1" tooltips="1" connect="1" arrows="1" fold="1" page="1" pageScale="1" pageWidth="827" pageHeight="1169" math="0" shadow="0">
      <root>
        <mxCell id="0" />
        <mxCell id="1" parent="0" />
        <mxCell id="OzVoqJx9kRrpjT8EmI1z-1" value="业务侧/合作方侧" style="rounded=0;whiteSpace=wrap;html=1;" vertex="1" parent="1">
          <mxGeometry x="60" y="290" width="120" height="60" as="geometry" />
        </mxCell>
      </root>
    </mxGraphModel>
  </diagram>
</mxfile>
